#!OML:ASF I:\Actors\actors\Patient Classification 1\Patient 1\Session 1\Subject1.ASF
:FULLY-SPECIFIED
:DEGREES
320
root 0.492708 17.5844 9.11381 8.14352 -14.1816 -7.92059
lowerback 2.96264 -4.12131 5.46501
upperback -3.85602 -5.14563 1.43085
thorax -6.03301 -2.75326 -1.11755
lowerneck -10.2421 -7.61174 -7.2814
upperneck 35.3125 -9.45533 -1.50466
head 14.0585 -5.43717 -0.801044
rclavicle -9.81499e-016 -1.19271e-014
rhumerus -37.8884 57.6072 -55.7873
rradius 112.931
rwrist 16.7389
rhand 16.6812 -32.0234
rfingers 7.12502
rthumb 41.4318 -56.801
lclavicle -9.81499e-016 -1.19271e-014
lhumerus -41.0662 -51.4927 113.107
lradius 88.4901
lwrist 29.6554
lhand -35.0994 -17.5304
lfingers 7.12502
lthumb -8.2407 12.2889
rfemur -11.5067 23.3189 24.1518
rtibia 14.6423
rfoot -12.1683 -11.286
rtoes -6.01944
lfemur 8.1586 -33.175 -14.5751
ltibia -3.18282
lfoot -26.0397 49.0454
ltoes 13.8979
321
root 0.462488 17.5841 9.09591 7.9835 -14.5805 -7.81654
lowerback 3.16938 -3.71463 5.51168
upperback -3.60394 -4.60105 1.22771
thorax -5.86893 -2.48283 -1.40397
lowerneck -10.0842 -7.58804 -7.24471
upperneck 35.0229 -9.51355 -1.2131
head 13.909 -5.41352 -0.679834
rclavicle -9.60813e-014 2.50469e-014
rhumerus -40.3251 57.7034 -57.2386
rradius 113.624
rwrist 18.1914
rhand 17.5282 -31.7293
rfingers 7.12502
rthumb 42.2259 -56.2432
lclavicle -9.60813e-014 2.50469e-014
lhumerus -42.4988 -49.172 110.002
lradius 89.5046
lwrist 24.8762
lhand -37.9912 -19.1219
lfingers 7.12502
lthumb -11.0308 10.5683
rfemur -11.5853 23.2201 24.208
rtibia 14.9849
rfoot -12.3175 -10.9061
rtoes -5.93137
lfemur 8.28368 -32.5535 -14.5918
ltibia -3.11073
lfoot -25.07 48.8787
ltoes 12.4769
322
root 0.430461 17.5797 9.07807 7.94973 -14.5022 -7.65594
lowerback 3.21852 -3.46832 5.58641
upperback -3.4196 -4.27818 1.03243
thorax -5.70043 -2.3239 -1.68381
lowerneck -9.91735 -7.53333 -7.24635
upperneck 34.8258 -9.55898 -0.818326
head 13.809 -5.3779 -0.514465
rclavicle 1.39305e-014 0
rhumerus -42.9991 58.119 -58.9873
rradius 114.472
rwrist 18.1411
rhand 18.8343 -32.3479
rfingers 7.12502
rthumb 43.4476 -56.4337
lclavicle 1.39305e-014 0
lhumerus -44.1028 -46.7023 106.445
lradius 90.483
lwrist 20.3983
lhand -41.279 -18.396
lfingers 7.12502
lthumb -14.2005 11.0986
rfemur -11.8223 22.8468 24.1524
rtibia 15.3288
rfoot -12.4921 -10.7657
rtoes -5.7933
lfemur 7.77481 -31.6245 -14.2107
ltibia -2.76653
lfoot -24.1011 47.963
ltoes 11.4158
323
root 0.390904 17.5765 9.06145 7.92902 -14.2178 -7.54047
lowerback 3.24867 -3.29002 5.61636
upperback -3.22884 -4.04885 0.868775
thorax -5.51317 -2.20771 -1.89808
lowerneck -9.64466 -7.4251 -7.23599
upperneck 34.6204 -9.5616 -0.350139
head 13.6846 -5.31551 -0.311351
rclavicle 5.63896e-015 -3.97569e-015
rhumerus -45.7039 58.7506 -60.894
rradius 115.114
rwrist 17.0808
rhand 19.9094 -33.1769
rfingers 7.12502
rthumb 44.4507 -56.8897
lclavicle 5.63896e-015 -3.97569e-015
lhumerus -47.4667 -45.2816 104.307
lradius 91.6896
lwrist 23.3653
lhand -45.3662 -21.9208
lfingers 7.12502
lthumb -18.136 7.25368
rfemur -12.0544 22.3245 24.1739
rtibia 15.6998
rfoot -12.6756 -10.6645
rtoes -5.75905
lfemur 7.16184 -30.7126 -13.6662
ltibia -2.371
lfoot -23.2166 46.8722
ltoes 10.2697
324
root 0.340368 17.5765 9.04643 7.82764 -13.8759 -7.53788
lowerback 3.36199 -3.11908 5.58655
upperback -2.9511 -3.82767 0.74435
thorax -5.27388 -2.08901 -2.03573
lowerneck -9.50461 -7.35121 -7.16107
upperneck 34.3823 -9.59458 0.0638524
head 13.5688 -5.26283 -0.151328
rclavicle 8.18744e-015 -7.95139e-016
rhumerus -48.1601 59.2153 -62.6803
rradius 115.379
rwrist 16.1047
rhand 20.6191 -33.6115
rfingers 7.12502
rthumb 45.1114 -57.067
lclavicle 8.18744e-015 -7.95139e-016
lhumerus -50.7463 -43.641 101.614
lradius 92.982
lwrist 25.1031
lhand -49.1205 -20.8007
lfingers 7.12502
lthumb -21.7447 7.99794
rfemur -12.1465 21.923 24.4166
rtibia 16.1024
rfoot -12.9109 -10.6961
rtoes -5.69133
lfemur 6.83112 -30.2016 -13.157
ltibia -2.0701
lfoot -22.964 46.0329
ltoes 9.68063
325
root 0.281581 17.575 9.03099 7.7672 -13.339 -7.69674
lowerback 3.52323 -2.99117 5.64624
upperback -2.65948 -3.65455 0.65414
thorax -5.05517 -1.9963 -2.18021
lowerneck -9.54375 -7.30938 -7.00564
upperneck 34.17 -9.66369 0.436909
head 13.4974 -5.21831 -0.0361753
rclavicle -2.07109e-014 -2.38542e-014
rhumerus -50.7068 59.4573 -64.5766
rradius 115.58
rwrist 15.6777
rhand 21.0377 -34.0944
rfingers 7.12502
rthumb 45.5005 -57.3941
lclavicle -2.07109e-014 -2.38542e-014
lhumerus -54.3987 -42.1512 98.9275
lradius 94.0247
lwrist 26.4675
lhand -51.5342 -22.0079
lfingers 7.12502
lthumb -24.0609 6.50371
rfemur -12.2501 21.5309 24.8711
rtibia 16.5208
rfoot -13.1774 -10.8484
rtoes -5.392
lfemur 6.44037 -29.8092 -12.4052
ltibia -1.77843
lfoot -22.347 45.2865
ltoes 8.41879
